<?xml version="1.0" standalone="no"?>
<!DOCTYPE svg PUBLIC "-//W3C//DTD SVG 1.1//EN" "http://www.w3.org/Graphics/SVG/1.1/DTD/svg11.dtd" >
<svg xmlns="http://www.w3.org/2000/svg">
<metadata></metadata>
<defs>
<font id="a_gildiaexpregular" horiz-adv-x="915" >
<font-face units-per-em="2048" ascent="1638" descent="-410" />
<missing-glyph horiz-adv-x="684" />
<glyph horiz-adv-x="0" />
<glyph unicode="&#xd;" horiz-adv-x="684" />
<glyph horiz-adv-x="2048" />
<glyph unicode=" "  horiz-adv-x="684" />
<glyph unicode="&#x09;" horiz-adv-x="684" />
<glyph unicode="&#xa0;" horiz-adv-x="684" />
<glyph unicode="!" horiz-adv-x="671" d="M487 1104q0 -55 -12 -119q-23 -109 -24 -119l-72 -475h-80l-74 475q-2 10 -24 119q-12 63 -13 119v387h299v-387zM375 0h-80q-106 0 -107 84v102q0 84 107 84h80q113 0 112 -84v-102q1 -84 -112 -84z" />
<glyph unicode="&#x22;" horiz-adv-x="987" d="M406 874h-142v603h142v-603zM764 874h-141v603h141v-603z" />
<glyph unicode="#" horiz-adv-x="1660" d="M1464 592v-98h-327l-97 -494h-133l103 494h-422l-96 -494h-130l99 494h-326v98h344l62 319h-322v99h340l96 465h131l-94 -465h416l92 465h133l-90 -465h303v-99h-323l-64 -319h305zM1090 911h-418l-60 -319h412z" />
<glyph unicode="$" horiz-adv-x="860" d="M389 -170v176q-72 29 -121 92h-12l-18 -98h-158v588h176v-92q0 -41 39 -66q33 -20 76 -20h125q115 0 114 86v120q0 100 -145 101q-18 0 -61.5 -2t-65.5 -2q-141 0 -199.5 60.5t-58.5 164.5v295q0 117 82 194.5t198 77.5v133h127v-153q66 -27 111 -84h12l19 90h157v-535 h-176v52q0 96 -114 96h-125q-115 0 -115 -96v-84q0 -102 111 -103h163q256 0 256 -182v-416q0 -104 -80.5 -170.5t-189.5 -66.5v-156h-127z" />
<glyph unicode="%" horiz-adv-x="1312" d="M532 1323v-571q0 -82 -79 -125q-66 -37 -154 -37q-96 0 -160 39q-78 47 -78 137v557q0 86 76 131q63 37 156 37q94 0 160 -37q79 -45 79 -131zM907 1499h86l-579 -1519h-92zM1260 723v-573q0 -84 -80 -127q-63 -35 -156 -35q-96 0 -158 39q-76 47 -75 137v559 q0 84 75 129q63 37 154 37q92 0 158 -37q82 -45 82 -129zM344 1233h-96q-51 0 -51 -49v-295q0 -45 49 -45h98q49 0 49 45v295q0 49 -49 49zM1075 631h-98q-47 0 -47 -47v-295q0 -47 45 -47h100q49 0 49 47v295q0 47 -49 47z" />
<glyph unicode="&#x26;" horiz-adv-x="923" d="M774 985h-186q0 66 -4 80q-10 43 -54 43h-110q-76 0 -76 -57v-113q0 -59 84 -59h133v-136h-160q-90 0 -90 -51v-223q0 -47 17.5 -63.5t62.5 -16.5h152q66 0 75 33q2 6 3 98l-109 -16v139l418 80v-137l-119 -25v-282q0 -129 -109 -209q-98 -70 -233 -70q-145 0 -242 66 q-111 74 -110 213v385q0 102 114 153v6q0 4 -36.5 49.5t-36.5 98.5v297q0 121 96 186q84 55 211 55q125 0 207 -47q102 -57 102 -172v-305z" />
<glyph unicode="'" horiz-adv-x="495" d="M336 874h-141v603h141v-603z" />
<glyph unicode="(" horiz-adv-x="604" d="M119 4v1135q0 367 334 366h55v-264q-143 0 -178 -10q-98 -25 -99 -125v-1069q0 -102 97 -127q37 -10 180 -10v-265h-55q-168 0 -254 103q-80 96 -80 266z" />
<glyph unicode=")" horiz-adv-x="604" d="M373 37v1069q0 100 -99 125q-35 10 -178 10v264h56q334 0 333 -366v-1135q0 -170 -79 -266q-86 -102 -254 -103h-56v265q143 0 180 10q97 25 97 127z" />
<glyph unicode="*" horiz-adv-x="1243" d="M702 1303l320 100l-141 -232l219 -63l-219 -64l141 -233l-320 102l-75 -163l-74 163l-328 -102l146 233l-219 64l219 63l-146 232l328 -100l74 159z" />
<glyph unicode="+" horiz-adv-x="1173" d="M539 1167h108v-389h490v-80h-490v-389h-108v389h-496v80h496v389z" />
<glyph unicode="," horiz-adv-x="468" d="M223 0q-137 0 -137 82v104q0 82 102 82h86q111 0 111 -82v-104q0 -41 -18 -62l-181 -200h-108z" />
<glyph unicode="-" horiz-adv-x="423" d="M2 631h424v-94h-424v94z" />
<glyph unicode="." horiz-adv-x="468" d="M276 0h-83q-104 0 -105 84v102q0 84 105 84h83q109 0 109 -84v-102q0 -84 -109 -84z" />
<glyph unicode="/" horiz-adv-x="624" d="M461 1475h98l-383 -1475h-106z" />
<glyph unicode="0" d="M805 1225v-955q0 -135 -107 -215q-96 -70 -237 -69q-145 0 -242 67q-111 76 -110 217v955q0 135 108 213q96 68 236 67q137 0 237 -69q115 -78 115 -211zM389 410h135q88 0 88 92v508q0 94 -88 94h-131q-94 0 -94 -94v-508q0 -92 90 -92z" />
<glyph unicode="1" d="M565 1491v-1081h236v-410h-674v410h258v694h-174v272l174 115h180z" />
<glyph unicode="2" d="M109 926v303q0 133 110 209q96 68 236 67q143 0 237 -65q109 -74 109 -211v-199q0 -113 -62 -178l-401 -432v-10h184q84 0 101 55q4 12 4 129h174v-594h-692v410l464 495q53 57 54 123q0 76 -109 76h-127q-84 0 -100 -51q-6 -16 -6 -127h-176z" />
<glyph unicode="3" d="M115 926v297q0 131 108 209q96 68 232 67q133 0 231 -69q113 -78 113 -207v-303q0 -94 -123 -144v-10q123 -31 123 -170v-336q0 -125 -113 -203q-102 -72 -231 -71q-133 0 -232 69q-109 78 -108 205v336h176v-115q0 -72 84 -71h151q35 0 66 19.5t31 51.5v115 q0 76 -31 100q-27 18 -100 19h-127v106h131q66 0 92 17q35 23 35 88v96q0 82 -93 82h-137q-80 0 -96 -53q-6 -18 -6 -125h-176z" />
<glyph unicode="4" d="M745 1104v-426h189v-107h-189v-161h117v-410h-446v410h133v161h-543v107l359 536q88 131 114 164q84 98 158 109q33 4 98 4h127v-387h-117zM549 678v426q-82 0 -133 -74l-246 -352h379z" />
<glyph unicode="5" d="M799 1491v-387h-508v-281q66 39 201 39q123 0 172 -12q98 -25 122 -105q12 -41 13 -114v-369q0 -276 -334 -276q-350 0 -350 276v326h176v-62q0 -117 170 -116q162 0 162 116v84q0 145 -154 146q-106 0 -190 -74l-164 35v774h684z" />
<glyph unicode="6" d="M801 926h-174q0 109 -6 127q-18 51 -103 51h-112q-113 0 -113 -82v-242h10q37 0 108.5 24.5t118.5 24.5q270 0 271 -229v-348q0 -133 -103 -205q-90 -61 -229 -61q-143 0 -240 59q-115 72 -114 207v987q0 139 104 209q88 57 236 57q147 0 237 -57q109 -70 109 -209v-313z M397 410h133q96 0 97 98v121q0 84 -95 84h-114q-125 0 -125 -99v-106q0 -98 104 -98z" />
<glyph unicode="7" d="M891 1491v-387q-68 -102 -139 -221q-207 -344 -207 -883h-271v12q0 270 134 576q121 272 313 508v8h-359q-100 0 -120 -41q-12 -23 -13 -137h-182v565h844z" />
<glyph unicode="8" d="M117 252v366q0 106 90 146v10q0 12 -45 57.5t-45 71.5v336q0 131 110 203q96 63 234 63q139 0 231 -61q109 -72 109 -205v-336q0 -90 -90 -129v-10q0 -8 45 -58.5t45 -87.5v-366q0 -131 -105 -203q-90 -63 -227 -63q-139 0 -238 61q-114 72 -114 205zM401 821h121 q104 0 105 82v125q0 76 -95 76h-126q-113 0 -113 -76v-125q-1 -82 108 -82zM397 410h142q88 0 88 77v146q0 82 -88 82h-142q-104 0 -104 -82v-146q0 -77 104 -77z" />
<glyph unicode="9" d="M115 565h176q0 -90 10 -112q18 -43 96 -43h115q111 0 111 82v219h-11q-33 0 -104.5 -24.5t-122.5 -24.5q-270 0 -270 229v348q0 131 104 203q90 63 227 63q145 0 240 -59q115 -70 115 -207v-987q0 -137 -107 -207q-88 -59 -233 -59q-143 0 -238 59q-109 72 -108 207v313z M383 778h115q125 0 125 99v129q0 98 -105 98h-133q-94 0 -94 -98v-144q0 -84 92 -84z" />
<glyph unicode=":" horiz-adv-x="468" d="M276 674h-83q-104 0 -105 84v102q0 84 105 84h83q109 0 109 -84v-102q0 -84 -109 -84zM276 0h-83q-104 0 -105 84v102q0 84 105 84h83q109 0 109 -84v-102q0 -84 -109 -84z" />
<glyph unicode=";" horiz-adv-x="468" d="M266 674h-82q-102 0 -102 84v102q0 84 102 84h82q113 0 113 -84v-102q0 -84 -113 -84zM223 0q-137 0 -137 82v104q0 82 102 82h86q111 0 111 -82v-116q0 -29 -18 -50l-181 -200h-108z" />
<glyph unicode="&#x3c;" horiz-adv-x="1435" d="M1409 1266v-117l-1196 -393l1196 -408v-117l-1374 463v119z" />
<glyph unicode="=" horiz-adv-x="1173" d="M1137 942v-78h-1094v78h1094zM1137 645v-78h-1094v78h1094z" />
<glyph unicode="&#x3e;" horiz-adv-x="1435" d="M35 231v117l1196 397l-1196 404v117l1374 -461v-117z" />
<glyph unicode="?" horiz-adv-x="960" d="M319 965h-176v266q0 274 330 274q174 0 254 -49q104 -63 104 -225v-418q0 -61 -46 -99t-109 -38q-53 0 -84 -24.5t-31 -67.5v-148h-180v226q0 104 70 135q63 12 129.5 25.5t66.5 80.5v115q0 86 -102 86h-137q-66 0 -82 -41q-7 -18 -7 -98zM512 0h-80q-104 0 -104 84v102 q0 84 104 84h80q109 0 109 -84v-102q0 -84 -109 -84z" />
<glyph unicode="@" horiz-adv-x="1226" d="M930 1196h-469q-84 0 -123 -30.5t-39 -112.5v-951q0 -143 162 -143h469q160 0 160 119h122v-74q0 -78 -24 -135q-80 -182 -504 -182q-201 0 -330 59q-178 78 -178 254v1255q0 250 508 250q528 0 528 -250v-956q0 -156 -147 -156h-154q-90 0 -106 52h-12q-23 0 -65 -26 t-81 -26q-74 0 -127 37q-59 43 -59 113v571q0 72 59 113q53 35 127 35q84 0 146 -58h12v58h125v-666h61q68 0 88 43q10 25 11 105v559q0 82 -38 112.5t-122 30.5zM649 346h84q72 0 72 62v340q0 61 -72 61h-84q-25 0 -44 -18.5t-19 -42.5v-340q0 -25 19 -43.5t44 -18.5z" />
<glyph unicode="A" horiz-adv-x="1038" d="M371 635l-70 -225h133v-410h-434v410h125l205 694h-101v387h582v-387h-100l202 -694h125v-410h-434v410h133l-65 225h-301zM399 741h246l-104 363h-41z" />
<glyph unicode="B" horiz-adv-x="985" d="M55 0v410h133v694h-133v387h488q346 0 346 -252v-270q0 -78 -39 -123q-31 -35 -111 -72v-8q104 -25 141.5 -79t37.5 -167v-227q0 -125 -115 -213q-106 -80 -236 -80h-512zM367 715v-305h245q127 0 127 98v104q0 102 -141 103h-231zM367 1104v-283h221q121 0 121 105v102 q0 76 -107 76h-235z" />
<glyph unicode="C" horiz-adv-x="862" d="M782 874h-180q0 137 -14 168q-29 61 -150 62q-166 0 -166 -121v-430q0 -143 166 -143q117 0 148 67q16 37 16 168h180v-328q0 -332 -336 -331q-356 0 -356 331v924q0 264 266 264q137 0 232 -116h14l21 96h159v-611z" />
<glyph unicode="D" horiz-adv-x="970" d="M55 1104v387h424q197 0 291 -64q111 -76 111 -264v-815q0 -193 -109 -274q-94 -74 -293 -74h-424v410h133v694h-133zM371 1104v-694h133q92 0 137 24q59 35 59 123v397q0 92 -65 127q-45 23 -150 23h-114z" />
<glyph unicode="E" horiz-adv-x="966" d="M55 1491h822v-600h-185q0 131 -8 153q-23 59 -125 60h-186v-283h233v-106h-233v-305h186q133 0 133 92v143h185v-645h-822v410h133v694h-133v387z" />
<glyph unicode="F" horiz-adv-x="878" d="M55 1491h791v-606h-182v116q0 74 -33 91q-23 12 -72 12h-186v-283h186v-106h-186v-305h186v-410h-504v410h133v694h-133v387z" />
<glyph unicode="G" horiz-adv-x="872" d="M782 932h-180v59q0 113 -164 113q-166 0 -166 -113v-461q0 -121 166 -120q164 0 164 120v185h-149v106h401v-106h-72v-729h-159l-21 118h-10q-78 -119 -236 -118q-266 0 -266 247v1029q0 244 266 243q154 0 236 -96h10l21 96h159v-573z" />
<glyph unicode="H" horiz-adv-x="1081" d="M1028 0h-434v410h119v305h-342v-305h118v-410h-434v410h138v694h-138v387h434v-387h-118v-283h342v283h-119v387h434v-387h-137v-694h137v-410z" />
<glyph unicode="I" horiz-adv-x="595" d="M541 0h-486v410h152v694h-152v387h486v-387h-152v-694h152v-410z" />
<glyph unicode="J" horiz-adv-x="737" d="M33 645h168v-149q0 -86 90 -86q82 0 82 86v608h-221v387h538v-387h-137v-905q0 -213 -260 -213t-260 213v446z" />
<glyph unicode="K" horiz-adv-x="1107" d="M506 0h-451v410h138v694h-138v387h451v-387h-133v-283h53l332 283h-137v387h432v-387h-113l-336 -283q113 0 217 -63q119 -74 119 -180v-168h135v-410h-454v410h137v155q0 150 -205 150h-180v-305h133v-410z" />
<glyph unicode="L" horiz-adv-x="911" d="M55 1491h490v-387h-172v-694h135q70 0 96 16q37 23 37 86v133h178v-645h-764v410h133v694h-133v387z" />
<glyph unicode="M" horiz-adv-x="1488" d="M752 410l288 1081h392v-387h-134v-694h134v-410h-439v410h127v694h-10l-328 -1104h-73l-330 1104h-12v-694h129v-410h-441v410h133v694h-133v387h391l293 -1081h13z" />
<glyph unicode="N" horiz-adv-x="1024" d="M872 0h-178l-315 1104h-12v-694h120v-410h-432v410h133v694h-133v387h336l293 -1016h10v629h-100v387h399v-387h-121v-1104z" />
<glyph unicode="O" horiz-adv-x="931" d="M842 1210v-931q0 -289 -377 -289q-162 0 -258 61q-117 76 -117 228v931q0 295 375 295q377 0 377 -295zM657 539v440q0 125 -161 125h-60q-162 0 -162 -125v-440q0 -125 162 -125h60q161 0 161 125z" />
<glyph unicode="P" horiz-adv-x="911" d="M373 715v-305h225v-410h-543v410h138v694h-138v387h430q190 0 277 -68q100 -76 100 -258v-213q0 -164 -180 -213q-86 -24 -309 -24zM373 1104v-283h112q186 0 187 144q0 86 -54 116q-37 23 -133 23h-112z" />
<glyph unicode="Q" horiz-adv-x="931" d="M657 539v440q0 125 -161 125h-60q-162 0 -162 -125v-440q0 -55 36 -92t91 -37v170h129v-170q53 0 90 38t37 91zM811 -92v-232h-74q-172 0 -254 90.5t-82 219.5q-145 0 -228 82t-83 227v915q0 295 375 295q377 0 377 -295v-931q0 -141 -84 -217t-228 -76q0 -45 39 -71 t86 -26q101 1 156 19z" />
<glyph unicode="R" horiz-adv-x="1044" d="M55 1491h451q379 0 379 -322v-159q0 -100 -47 -160q-39 -51 -138 -94v-8q96 -29 119 -93q12 -33 12 -157q0 -74 80 -74h109v-424h-189q-180 0 -180 184v371q0 109 -94 141q-51 18 -184 19v-305h133v-410h-451v410h138v694h-138v387zM373 821h133q195 0 194 135 q0 90 -59 123q-41 25 -135 25h-133v-283z" />
<glyph unicode="S" horiz-adv-x="860" d="M629 1491h157v-535h-176v52q0 96 -114 96h-125q-84 0 -105 -55q-10 -25 -10 -125q0 -102 111 -103h163q256 0 256 -182v-416q0 -109 -81.5 -173t-192.5 -64q-158 0 -244 112h-12l-18 -98h-158v588h176v-92q0 -41 39 -66q33 -20 76 -20h125q115 0 114 86v120 q0 100 -143 101q-20 0 -63.5 -2t-65.5 -2q-141 0 -199.5 59t-58.5 166v295q0 117 82 194.5t198 77.5q143 0 238 -104h12z" />
<glyph unicode="T" horiz-adv-x="843" d="M0 885v606h844v-606h-180v143q0 76 -97 76h-55v-694h152v-410h-484v410h152v694h-56q-96 0 -96 -76v-143h-180z" />
<glyph unicode="U" horiz-adv-x="1005" d="M25 1491h428v-387h-115v-584q0 -111 96 -110h139q94 0 95 110v584h-115v387h430v-387h-133v-776q0 -342 -346 -342q-164 0 -255 89t-91 253v776h-133v387z" />
<glyph unicode="V" horiz-adv-x="993" d="M485 410h23l182 694h-139v387h442v-387h-129l-182 -694h145v-410h-661v410h145l-184 694h-127v387h442v-387h-139z" />
<glyph unicode="W" horiz-adv-x="1544" d="M0 1104v387h442v-387h-139l182 -694h23l182 694h-139v387h442v-387h-139l182 -694h23l182 694h-139v387h442v-387h-127l-184 -694h139v-410h-403l-191 727h-12l-191 -727h-403v410h139l-184 694h-127z" />
<glyph unicode="X" horiz-adv-x="1050" d="M637 770l289 -360h102v-410h-444v410h137l-186 241h-17l-188 -241h139v-410h-444v410h100l291 360l-281 334h-110v387h444v-387h-131l180 -221h17l178 221h-129v387h444v-387h-113z" />
<glyph unicode="Y" horiz-adv-x="974" d="M575 655v-245h144v-410h-469v410h143v245l-268 449h-125v387h438v-387h-119l160 -287h10l166 287h-120v387h440v-387h-125z" />
<glyph unicode="Z" horiz-adv-x="827" d="M764 0h-694v410l483 694h-199q-106 0 -106 -74v-115h-178v576h694v-387l-485 -694h184q123 0 123 108v158h178v-676z" />
<glyph unicode="[" horiz-adv-x="651" d="M193 -365v1870h387v-264h-277v-1341h277v-265h-387z" />
<glyph unicode="\" horiz-adv-x="624" d="M172 1477l387 -1475h-100l-389 1475h102z" />
<glyph unicode="]" horiz-adv-x="651" d="M461 -365h-389v265h276v1341h-276v264h389v-1870z" />
<glyph unicode="^" horiz-adv-x="1435" d="M248 850h-166l557 627h166l553 -627h-166l-473 530z" />
<glyph unicode="_" horiz-adv-x="1103" d="M1108 -172v-125h-1106v125h1106z" />
<glyph unicode="`" horiz-adv-x="1435" d="M328 1618h336l180 -342h-232z" />
<glyph unicode="a" horiz-adv-x="884" d="M846 338v-338h-209l-19 117h-12q-86 -125 -239 -125q-74 0 -127 16q-141 43 -142 330v133q0 94 80 141q66 37 166 37h274v129q0 94 -96 94h-178q-68 0 -84 -38q-8 -20 -8 -101h-154v139q0 184 78 254q72 63 260 64q186 0 260 -66.5t74 -251.5v-534h76zM618 557h-274 q-92 0 -92 -70v-75q0 -74 96 -74h156q115 0 114 90v129z" />
<glyph unicode="b" horiz-adv-x="884" d="M260 1491v-418h12q72 117 240 117q162 0 221 -70q53 -63 53 -229v-561q0 -178 -45 -248q-59 -92 -227 -92q-162 0 -242 121h-12l-18 -111h-129v1227h-80v264h227zM375 340h164q94 0 94 92v348q0 92 -94 92h-164q-115 0 -115 -92v-348q0 -92 115 -92z" />
<glyph unicode="c" horiz-adv-x="837" d="M606 479h150v-172q0 -168 -77 -242.5t-247 -74.5q-172 0 -253 73.5t-81 243.5v565q0 174 78 246t256 72q174 0 249 -73t75 -245v-139h-150q0 74 -8 96q-18 43 -80 43h-178q-92 0 -92 -90v-354q0 -88 92 -88h178q63 0 80 43q8 20 8 96z" />
<glyph unicode="d" horiz-adv-x="884" d="M543 1491h229v-1151h80v-340h-211l-18 111h-11q-84 -121 -241 -121q-166 0 -226 92q-47 72 -47 248v561q0 164 54 227q61 72 221 72q88 0 137 -23q57 -25 102 -94h11v154h-80v264zM508 340q57 0 82 14q33 20 33 78v348q0 57 -33 78q-25 14 -82 14h-162q-96 0 -96 -92 v-348q0 -92 96 -92h162z" />
<glyph unicode="e" horiz-adv-x="837" d="M606 479h150v-172q0 -168 -77 -242.5t-247 -74.5q-172 0 -253 73.5t-81 243.5v565q0 174 78 246t256 72q174 0 249 -73t75 -245v-301h-508v-143q0 -88 92 -88h178q63 0 80 43q8 20 8 96zM248 782v-118h358v118q0 90 -88 90h-178q-92 0 -92 -90z" />
<glyph unicode="f" horiz-adv-x="397" d="M35 0v340h84v532h-86v308h86q0 178 37 235q49 76 217 76h61v-250q-98 0 -96 0q-66 -6 -66 -49v-12h80v-308h-80v-532h101v-340h-338z" />
<glyph unicode="g" horiz-adv-x="884" d="M641 1180h211v-308h-80v-919q0 -172 -81 -245t-255 -73q-178 0 -258 79t-80 257h152q0 -74 102 -73h160q111 0 111 102v111h-11q-41 -59 -106 -78q-41 -10 -135 -10q-137 0 -209 92q-63 84 -64 225v541q0 170 52 235q59 74 223 74q88 0 137 -23q57 -25 102 -94h11z M508 340q57 0 82 14q33 20 33 78v348q0 57 -33 78q-25 14 -82 14h-162q-96 0 -96 -92v-348q0 -92 96 -92h162z" />
<glyph unicode="h" horiz-adv-x="921" d="M291 1491v-401h10q47 59 102 81q45 18 127 19q135 0 199 -49q72 -55 72 -187v-614h88v-340h-332v340h92v446q0 86 -98 86h-160q-100 0 -100 -90v-442h100v-340h-340v340h88v887h-65v264h217z" />
<glyph unicode="i" horiz-adv-x="442" d="M313 1180v-840h97v-340h-363v340h115v532h-80v308h231zM82 1491h231v-205h-231v205z" />
<glyph unicode="j" horiz-adv-x="385" d="M59 1180h232v-1319q0 -127 -46 -176.5t-171 -49.5h-107v265q115 0 125 4q47 14 47 96v872h-80v308zM59 1491h232v-205h-232v205z" />
<glyph unicode="k" d="M291 1491v-832h10l240 205v8h-78v308h360v-308h-112l-248 -204v-9h37q115 0 196 -49q100 -59 101 -166v-104h94v-340h-342v340h98v102q0 59 -47 92t-108 33h-201v-227h100v-340h-340v340h88v887h-88v264h240z" />
<glyph unicode="l" horiz-adv-x="409" d="M291 1491v-1151h88v-340h-336v340h96v887h-80v264h232z" />
<glyph unicode="m" horiz-adv-x="1421" d="M287 1180v-123q94 133 245 133q166 0 250 -133q109 133 258 133q80 0 154 -43t98 -115q10 -31 11 -82v-610h88v-340h-334v340h96v442q0 90 -104 90h-150q-102 0 -102 -90v-442h94v-340h-338v340h94v442q0 90 -104 90h-160q-96 0 -96 -90v-442h102v-340h-342v340h92v532 h-92v308h240z" />
<glyph unicode="n" horiz-adv-x="921" d="M51 1180h240v-90h10q47 59 102 81q45 18 127 19q135 0 199 -49q72 -55 72 -187v-614h88v-340h-332v340h92v446q0 86 -98 86h-160q-100 0 -100 -90v-442h100v-340h-340v340h88v532h-88v308z" />
<glyph unicode="o" horiz-adv-x="884" d="M340 340h209q88 0 88 88v354q0 90 -88 90h-209q-92 0 -92 -90v-354q0 -88 92 -88zM786 872v-565q0 -317 -342 -317q-174 0 -256 71q-90 76 -90 246v565q0 174 84 246t262 72q176 0 256 -70q86 -76 86 -248z" />
<glyph unicode="p" horiz-adv-x="911" d="M268 1180l19 -107h12q72 117 240 117t223 -74q49 -63 49 -235v-541q0 -340 -270 -340q-170 0 -242 111h-12v-211h114v-265h-350v265h88v972h-88v308h217zM401 340h164q94 0 94 92v348q0 92 -94 92h-164q-115 0 -114 -92v-348q-1 -92 114 -92z" />
<glyph unicode="q" horiz-adv-x="911" d="M641 1180h131v-1280h80v-265h-344v265h115v211h-11q-76 -111 -241 -111q-272 0 -273 340v541q0 170 52 235q57 74 223 74q88 0 137 -23q57 -25 102 -94h11zM508 340q57 0 82 14q33 20 33 78v348q0 57 -33 78q-25 14 -82 14h-162q-96 0 -96 -92v-348q0 -92 96 -92h162z " />
<glyph unicode="r" horiz-adv-x="694" d="M664 731h-148q0 104 -19.5 122.5t-123.5 18.5q-82 0 -82 -75v-457h115v-340h-359v340h92v532h-92v308h244v-76q82 86 178 86q76 0 131 -39q63 -43 64 -117v-303z" />
<glyph unicode="s" horiz-adv-x="858" d="M762 1180v-449h-150q0 115 -6 133q-18 51 -106 51h-154q-100 0 -100 -77v-111q0 -78 116 -78h168q143 0 193 -47q39 -37 39 -139v-258q0 -94 -86 -158q-78 -57 -176 -57q-125 0 -244 119h-10l-21 -109h-129v459h150v-33q0 -86 100 -86h168q98 0 98 66v53q0 61 -37 82 q-25 16 -88 16h-176q-215 0 -215 174v242q0 106 78 164q70 53 178 53q145 0 250 -111h10l19 101h131z" />
<glyph unicode="t" horiz-adv-x="471" d="M287 1368v-188h176v-308h-176v-440q0 -72 55 -88q16 -4 121 -4v-340h-27q-94 0 -149 12q-98 23 -131 129q-16 59 -17 199v532h-88v308q88 0 88 57v131h148z" />
<glyph unicode="u" d="M51 872v308h240v-754q0 -86 98 -86h160q100 0 100 90v442h-96v308h248v-840h80v-340h-213l-19 90h-10q-78 -100 -229 -100q-270 0 -271 235v647h-88z" />
<glyph unicode="v" horiz-adv-x="864" d="M864 1180v-308h-106l-174 -532h102v-340h-510v340h107l-177 532h-106v308h360v-308h-100l164 -532h18l162 532h-98v308h358z" />
<glyph unicode="w" horiz-adv-x="1341" d="M1341 1180v-308h-106l-178 -532h104v-340h-301l-184 604h-10l-185 -604h-301v340h105l-179 532h-106v308h360v-308h-100l164 -532h8l162 532h-98v308h350v-308h-98l163 -532h7l163 532h-98v308h358z" />
<glyph unicode="x" horiz-adv-x="995" d="M18 0v340h140l252 270l-242 262h-115v308h383v-308h-96l158 -176l157 176h-96v308h383v-308h-115l-241 -262l254 -270h137v-340h-418v340h105l-166 186l-166 -186h104v-340h-418z" />
<glyph unicode="y" horiz-adv-x="884" d="M162 -365v265q152 0 180 8q92 23 92 131l-317 770h-115v307h360v-307h-88l224 -535h10l143 535h-94v307h346v-307h-98l-248 -909q-39 -141 -92 -197q-66 -68 -201 -68h-102z" />
<glyph unicode="z" horiz-adv-x="823" d="M72 1180h680v-308l-500 -532h246q70 0 88 39q10 20 10 100h156v-479h-680v340l493 532h-272q-61 0 -72 -41q-2 -6 -2 -100h-147v449z" />
<glyph unicode="{" horiz-adv-x="659" d="M565 -100v-265h-57q-166 0 -252 103q-80 96 -80 266v309q0 104 -21.5 155.5t-99.5 74.5v57q78 23 99.5 74t21.5 155v310q0 367 332 366h57v-264q-145 0 -180 -8q-98 -27 -98 -127v-277q0 -109 -13 -149q-23 -68 -98 -109q78 -41 98 -108q12 -39 13 -150v-276 q0 -102 98 -127q35 -10 180 -10z" />
<glyph unicode="|" horiz-adv-x="1435" d="M651 1475h137v-820h-137v820zM651 444h137v-819h-137v819z" />
<glyph unicode="}" horiz-adv-x="659" d="M55 -100q143 0 181 10q96 25 96 127v276q0 104 14 150q25 70 98 108q-74 39 -98 109q-14 45 -14 149v277q0 100 -99 127q-35 8 -178 8v264h58q332 0 331 -366v-310q0 -100 22.5 -153t98.5 -76v-57q-76 -23 -98.5 -76t-22.5 -154v-309q0 -170 -79 -266q-86 -102 -252 -103 h-58v265z" />
<glyph unicode="~" horiz-adv-x="1435" d="M1333 1567l92 -58q-193 -258 -378 -258q-82 0 -236 52q-115 43 -230.5 82.5t-179.5 39.5q-139 0 -295 -202l-90 59q184 248 377 248q96 0 246 -53q164 -57 311 -105q59 -18 88 -18q139 0 295 213z" />
<glyph unicode="&#xa4;" horiz-adv-x="899" d="M188 1063l-98 145l125 49l76 -112q88 35 198 35q104 0 205 -35l72 112l123 -49l-98 -145q43 -61 43 -141v-385q0 -70 -43 -142l98 -145l-123 -49l-72 114q-119 -37 -205 -36q-92 0 -198 36l-76 -114l-125 49l98 145q-41 82 -41 150v370q0 78 41 148zM684 858q0 90 -98 90 h-180q-106 0 -107 -102v-238q0 -92 107 -92h180q98 0 98 92v250z" />
<glyph unicode="&#xa6;" horiz-adv-x="1722" d="M932 795h-135v649h135v-649zM932 0h-135v651h135v-651z" />
<glyph unicode="&#xa7;" horiz-adv-x="899" d="M240 932q-43 55 -43 121v313q0 123 118 184q92 47 230 47q135 0 225 -41q125 -55 125 -172v-290h-166q0 51 -8 69q-12 33 -55 33h-211q-55 0 -68 -33q-6 -14 -6 -82q0 -90 88 -90q209 0 182 2q123 -6 178.5 -37.5t65.5 -117.5v-138q0 -72 -43 -122q43 -49 43 -125v-289 q0 -125 -119 -187q-94 -47 -231 -47q-129 0 -223 43q-125 57 -125 170v299h165q0 -68 5 -84q12 -43 61 -43h211q53 0 68 33q6 16 6 82q0 70 -37 84q-18 6 -53 6q-207 0 -181 -2q-123 6 -179 38t-66 116v139q0 72 43 121zM455 858q-92 0 -93 -98q0 -68 35 -94q18 -14 54 -15 h188q90 0 90 99q0 109 -88 108h-186z" />
<glyph unicode="&#xa9;" horiz-adv-x="2105" d="M115 928q0 403 276 606q244 178 662 178t665 -192q272 -211 273 -619q0 -406 -275 -618q-248 -193 -663 -193q-285 0 -508 111q-252 125 -363 364q-67 148 -67 363zM266 877q0 -340 230 -517q207 -156 557 -155q362 0 565 164q221 178 221 532q0 356 -221 535 q-199 160 -565 159q-412 0 -599.5 -177t-187.5 -490v-51zM1284 981h-121q0 90 -10 111q-18 41 -96 41q-113 0 -113 -80v-285q0 -94 113 -94q76 0 96 45q10 25 10 110h121v-217q0 -219 -221 -219q-238 0 -238 219v611q0 174 176 174q94 0 154 -78h8l15 65h106v-403z" />
<glyph unicode="&#xab;" horiz-adv-x="1722" d="M1595 180l-165 -141l-744 493l741 492l160 -141l-530 -351zM1028 180l-164 -141l-745 493l743 492l158 -141l-528 -351z" />
<glyph unicode="&#xac;" horiz-adv-x="1722" d="M1489 373h-256v403h-975v193h1231v-596z" />
<glyph unicode="&#xad;" horiz-adv-x="423" d="M2 631h424v-94h-424v94z" />
<glyph unicode="&#xae;" horiz-adv-x="2545" d="M115 780q0 500 340 750q297 219 815 219q289 0 508 -72q324 -109 488.5 -346t164.5 -581q0 -500 -340 -764q-307 -240 -821 -240q-350 0 -627 137q-311 156 -446 449q-82 178 -82 448zM301 719q0 -418 285 -635q254 -195 684 -195q446 0 698 203q276 221 277 658 q0 438 -277 657q-250 199 -698 199q-504 0 -736.5 -220.5t-232.5 -605.5v-61zM911 1370h365q305 0 305 -260v-131q0 -139 -149 -205v-6q106 -31 106 -129q0 -8 -2 -25v-24q0 -45 19.5 -64.5t66.5 -21.5q-51 2 70 2v-344h-154q-145 0 -145 149v301q0 86 -78 115 q-43 14 -150 14v-247h111v-332h-365v332h109v563h-109v313zM1165 827h111q156 0 156 109q0 74 -46 100q-35 20 -110 21h-111v-230z" />
<glyph unicode="&#xb0;" horiz-adv-x="530" d="M266 934q-84 0 -143 39q-68 45 -68 125v403q0 82 64 127q55 39 141 39q84 0 143 -39q70 -47 70 -127v-409q0 -78 -67 -121q-58 -37 -140 -37zM303 1421h-78q-57 0 -57 -55v-131q0 -55 55 -55h80q53 0 53 55v131q0 55 -53 55z" />
<glyph unicode="&#xb1;" horiz-adv-x="1722" d="M1534 877l-2 -201h-541v-352h-258v352h-547v201h547v399h258v-399h543zM1534 68h-1341v204h1341v-204z" />
<glyph unicode="&#xb6;" horiz-adv-x="1171" d="M473 1397h746v-357h-134v-1026h134v-374h-857v374h134v588q-186 0 -256 21q-137 43 -156 180q-10 74 -10 168q0 254 71 336q78 90 328 90zM692 1040v-1026h197v1026h-197z" />
<glyph unicode="&#xb7;" horiz-adv-x="468" d="M276 580h-83q-104 0 -105 84v100q0 84 105 84h83q109 0 109 -84v-100q0 -84 -109 -84z" />
<glyph unicode="&#xbb;" horiz-adv-x="1722" d="M291 1024l741 -494l-739 -491l-158 141l529 350l-539 353zM858 1024l741 -494l-739 -491l-160 141l531 350l-539 353z" />
<glyph unicode="&#x401;" horiz-adv-x="966" d="M55 1491h822v-600h-185q0 131 -8 153q-23 59 -125 60h-186v-283h233v-106h-233v-305h186q133 0 133 92v143h185v-645h-822v410h133v694h-133v387zM303 1599h-70q-82 0 -81 68v84q0 68 81 68h70q88 0 88 -68v-84q0 -68 -88 -68zM690 1599h-69q-82 0 -82 68v84q0 68 82 68 h69q88 0 88 -68v-84q0 -68 -88 -68z" />
<glyph unicode="&#x410;" horiz-adv-x="1038" d="M371 635l-70 -225h133v-410h-434v410h125l205 694h-101v387h582v-387h-100l202 -694h125v-410h-434v410h133l-65 225h-301zM399 741h246l-104 363h-41z" />
<glyph unicode="&#x411;" horiz-adv-x="985" d="M367 715v-305h245q127 0 127 98v104q0 102 -141 103h-231zM55 0v410h133v694h-133v387h830v-588h-176q0 127 -9 150q-23 51 -125 51h-208v-283h251q299 0 300 -223v-305q0 -125 -115 -213q-106 -80 -236 -80h-512z" />
<glyph unicode="&#x412;" horiz-adv-x="985" d="M55 0v410h133v694h-133v387h488q346 0 346 -252v-270q0 -78 -39 -123q-31 -35 -111 -72v-8q104 -25 141.5 -79t37.5 -167v-227q0 -125 -115 -213q-106 -80 -236 -80h-512zM367 715v-305h245q127 0 127 98v104q0 102 -141 103h-231zM367 1104v-283h221q121 0 121 105v102 q0 76 -107 76h-235z" />
<glyph unicode="&#x413;" horiz-adv-x="837" d="M55 1491h752v-606h-184q0 139 -7 159q-23 59 -127 60h-116v-694h186v-410h-504v410h133v694h-133v387z" />
<glyph unicode="&#x414;" horiz-adv-x="1044" d="M655 410v694h-157q-33 -33 -49 -55q-47 -66 -48 -258v-381h254zM737 0h-420q-94 0 -94 -76v-131h-168v617q84 0 105 4q63 14 63 69v293q0 125 8 172q18 90 78 150v6h-209v387h865v-387h-131v-694h167v-617h-167v131q-1 76 -97 76z" />
<glyph unicode="&#x415;" horiz-adv-x="966" d="M55 1491h822v-600h-185q0 131 -8 153q-23 59 -125 60h-186v-283h233v-106h-233v-305h186q133 0 133 92v143h185v-645h-822v410h133v694h-133v387z" />
<glyph unicode="&#x416;" horiz-adv-x="1546" d="M602 0v410h84v305h-133q-205 0 -205 -150v-155h139v-410h-454v410h135v168q0 106 119 180q104 63 217 63l-336 283h-113v387h432v-387h-139l338 -283v283h-84v387h342v-387h-84v-283h4l334 283h-139v387h432v-387h-113l-334 -283q113 0 218 -63q117 -74 116 -180v-168 h138v-410h-457v410h139v155q0 150 -205 150h-133v-305h84v-410h-342z" />
<glyph unicode="&#x417;" horiz-adv-x="964" d="M414 715v106q164 0 192 10q76 27 76 152q0 121 -158 121h-82q-164 0 -163 -121v-94h-175v596h154l21 -96h14q86 117 248 116q322 0 321 -266v-270q0 -78 -39 -123q-31 -35 -110 -72v-8q106 -25 145 -80q33 -51 33 -166v-227q0 -125 -115 -219q-106 -88 -235 -88h-135 q-332 0 -332 331v328h176v-92q0 -143 164 -143h145q154 0 154 147q0 121 -99 150q-32 8 -200 8z" />
<glyph unicode="&#x418;" horiz-adv-x="1081" d="M1028 0h-434v410h119v426h-11l-331 -334v-92h118v-410h-434v410h138v694h-138v387h434v-387h-118v-428h10l332 336v92h-119v387h434v-387h-137v-694h137v-410z" />
<glyph unicode="&#x419;" horiz-adv-x="1081" d="M1028 0h-434v410h119v426h-11l-331 -334v-92h118v-410h-434v410h138v694h-138v387h434v-387h-118v-428h10l332 336v92h-119v387h434v-387h-137v-694h137v-410zM489 1774h105q119 0 119 92h92v-68q0 -125 -43 -167t-168 -42h-105q-123 0 -166.5 43t-43.5 166v68h92 q-1 -92 118 -92z" />
<glyph unicode="&#x41a;" horiz-adv-x="1107" d="M506 0h-451v410h138v694h-138v387h451v-387h-133v-283h53l332 283h-137v387h432v-387h-113l-336 -283q113 0 217 -63q119 -74 119 -180v-168h135v-410h-454v410h137v155q0 150 -205 150h-180v-305h133v-410z" />
<glyph unicode="&#x41b;" horiz-adv-x="1044" d="M25 0v410h108q80 0 80 73v293q0 117 8 168q16 90 70 152v8h-213v387h909v-387h-135v-694h135v-410h-448v410h133v694h-185q-35 -33 -49 -55q-47 -66 -47 -273v-592q0 -184 -178 -184h-188z" />
<glyph unicode="&#x41c;" horiz-adv-x="1488" d="M752 410l288 1081h392v-387h-134v-694h134v-410h-439v410h127v694h-10l-328 -1104h-73l-330 1104h-12v-694h129v-410h-441v410h133v694h-133v387h391l293 -1081h13z" />
<glyph unicode="&#x41d;" horiz-adv-x="1081" d="M1028 0h-434v410h119v305h-342v-305h118v-410h-434v410h138v694h-138v387h434v-387h-118v-283h342v283h-119v387h434v-387h-137v-694h137v-410z" />
<glyph unicode="&#x41e;" horiz-adv-x="931" d="M842 1210v-931q0 -289 -377 -289q-162 0 -258 61q-117 76 -117 228v931q0 295 375 295q377 0 377 -295zM657 539v440q0 125 -161 125h-60q-162 0 -162 -125v-440q0 -125 162 -125h60q161 0 161 125z" />
<glyph unicode="&#x41f;" horiz-adv-x="1081" d="M1028 0h-434v410h119v694h-342v-694h118v-410h-434v410h138v694h-138v387h973v-387h-137v-694h137v-410z" />
<glyph unicode="&#x420;" horiz-adv-x="911" d="M373 715v-305h225v-410h-543v410h138v694h-138v387h430q190 0 277 -68q100 -76 100 -258v-213q0 -164 -180 -213q-86 -24 -309 -24zM373 1104v-283h112q186 0 187 144q0 86 -54 116q-37 23 -133 23h-112z" />
<glyph unicode="&#x421;" horiz-adv-x="862" d="M782 874h-180q0 137 -14 168q-29 61 -150 62q-166 0 -166 -121v-430q0 -143 166 -143q117 0 148 67q16 37 16 168h180v-328q0 -332 -336 -331q-356 0 -356 331v924q0 264 266 264q137 0 232 -116h14l21 96h159v-611z" />
<glyph unicode="&#x422;" horiz-adv-x="843" d="M0 885v606h844v-606h-180v143q0 76 -97 76h-55v-694h152v-410h-484v410h152v694h-56q-96 0 -96 -76v-143h-180z" />
<glyph unicode="&#x423;" horiz-adv-x="1005" d="M168 627h176q0 -166 18 -189q23 -29 177 -28q119 0 118 86v219q-160 0 -204 4q-125 12 -193 59q-92 63 -92 174v152h-121v387h408v-387h-111v-139q0 -143 201 -144h112v283h-106v387h407v-387h-118v-905q0 -199 -260 -199h-154q-258 0 -258 199v428z" />
<glyph unicode="&#x424;" horiz-adv-x="1191" d="M508 1567h176v-76q193 0 283 -43q135 -63 135 -234v-938q0 -276 -369 -276h-49v-111h-176v111q-188 0 -283 45q-135 63 -135 231v938q0 170 135 234q90 43 283 43v76zM684 1104v-694h115q125 0 125 108v471q0 115 -125 115h-115zM508 410v694h-115q-125 0 -125 -115v-471 q0 -109 125 -108h115z" />
<glyph unicode="&#x425;" horiz-adv-x="1050" d="M637 770l289 -360h102v-410h-444v410h137l-186 241h-17l-188 -241h139v-410h-444v410h100l291 360l-281 334h-110v387h444v-387h-131l180 -221h17l178 221h-129v387h444v-387h-113z" />
<glyph unicode="&#x426;" horiz-adv-x="1091" d="M55 1104v387h434v-387h-118v-694h342v694h-119v387h434v-387h-137v-694h168v-617h-162q0 135 -8 156q-20 51 -125 51h-709v410h138v694h-138z" />
<glyph unicode="&#x427;" horiz-adv-x="991" d="M33 1104v387h383v-387h-113v-139q0 -143 203 -144h112v283h-106v387h422v-387h-135v-694h135v-410h-518v410h202v305q-221 0 -309 24q-182 49 -182 213v152h-94z" />
<glyph unicode="&#x428;" horiz-adv-x="1603" d="M1118 1104v387h428v-387h-135v-694h135v-410h-1491v410h138v694h-138v387h430v-387h-114v-694h342v694h-115v387h406v-387h-115v-694h344v694h-115z" />
<glyph unicode="&#x429;" horiz-adv-x="1609" d="M55 0v410h138v694h-138v387h430v-387h-114v-694h342v694h-115v387h406v-387h-115v-694h344v694h-121v387h434v-387h-135v-694h168v-617h-162q0 135 -8 156q-20 51 -125 51h-1229z" />
<glyph unicode="&#x42a;" horiz-adv-x="1118" d="M33 891v600h774v-387h-227v-283q225 0 311 -22q180 -49 180 -215v-258q0 -184 -100 -260q-88 -66 -279 -66h-485v410h192v694h-59q-84 0 -109.5 -26.5t-25.5 -90.5v-45q2 -31 2 -51h-174zM580 410h112q92 0 135 22q57 33 58 121q0 162 -193 162h-112v-305z" />
<glyph unicode="&#x42b;" horiz-adv-x="1507" d="M55 1104v387h543v-387h-225v-283q227 0 311 -22q178 -49 178 -215v-258q0 -182 -100 -258q-86 -68 -277 -68h-430v410h138v694h-138zM373 410h112q94 0 133 22q57 33 58 121q0 162 -191 162h-112v-305zM1450 0h-483v410h151v694h-151v387h483v-387h-152v-694h152v-410z " />
<glyph unicode="&#x42c;" horiz-adv-x="911" d="M55 1104v387h543v-387h-225v-283q227 0 311 -22q178 -49 178 -215v-258q0 -182 -100 -258q-86 -68 -277 -68h-430v410h138v694h-138zM373 410h112q94 0 133 22q57 33 58 121q0 162 -191 162h-112v-305z" />
<glyph unicode="&#x42d;" horiz-adv-x="862" d="M348 821h244v162q0 121 -168 121q-164 0 -164 -121v-94h-180v596h160l20 -96h14q94 117 232 116q266 0 266 -264v-924q0 -332 -356 -331q-336 0 -336 331v328h180q0 -131 16 -168q31 -68 148 -67q168 0 168 143v162h-244v106z" />
<glyph unicode="&#x42e;" horiz-adv-x="1419" d="M516 0h-461v410h152v694h-152v387h461v-387h-127v-246h244v367q0 123 95 199.5t249 76.5q139 0 237 -67q115 -76 115 -209v-955q0 -135 -108 -213q-94 -68 -236 -67q-147 0 -242 65q-111 76 -110 215v482h-244v-342h127v-410zM913 410h136q31 16 59.5 33.5t28.5 58.5v508 q0 94 -88 94h-131q-94 0 -95 -94v-508q0 -92 90 -92z" />
<glyph unicode="&#x42f;" horiz-adv-x="1044" d="M987 1491v-387h-135v-694h135v-410h-448v410h133v305h-80q-201 0 -201 -160v-371q0 -184 -178 -184h-188v424h108q76 0 80 92q8 137 25 166q25 41 106 66v8q-98 43 -137 94q-47 59 -47 160v159q0 322 379 322h448zM672 821v283h-133q-94 0 -136 -25q-59 -33 -59 -123 q0 -135 195 -135h133z" />
<glyph unicode="&#x430;" horiz-adv-x="884" d="M846 338v-338h-209l-19 117h-12q-86 -125 -239 -125q-74 0 -127 16q-141 43 -142 330v133q0 94 80 141q66 37 166 37h274v129q0 94 -96 94h-178q-68 0 -84 -38q-8 -20 -8 -101h-154v139q0 184 78 254q72 63 260 64q186 0 260 -66.5t74 -251.5v-534h76zM618 557h-274 q-92 0 -92 -70v-75q0 -74 96 -74h156q115 0 114 90v129z" />
<glyph unicode="&#x431;" horiz-adv-x="854" d="M606 782q0 90 -88 90h-178q-92 0 -92 -90v-354q0 -88 92 -88h178q88 0 88 88v354zM98 307v955q0 109 99 182q80 61 213 61q96 0 114 2q82 12 82 62h127v-103q0 -94 -68.5 -147t-164.5 -53q-203 0 -225.5 -16.5t-26.5 -55.5q0 2 0 -64h10q31 0 97.5 25t109.5 25 q160 0 225.5 -73t65.5 -235v-565q0 -168 -77 -242.5t-247 -74.5q-172 0 -253 73.5t-81 243.5z" />
<glyph unicode="&#x432;" horiz-adv-x="880" d="M51 872v308h449q172 0 229 -70q51 -61 51 -238q0 -121 -6 -145q-16 -72 -94 -96v-8q94 -29 119 -111q10 -39 10 -172q0 -193 -71.5 -266.5t-264.5 -73.5h-422v340h96v532h-96zM299 571v-231h246q111 0 110 111q0 43 -28.5 81.5t-118.5 38.5h-209zM299 872v-208h201 q129 0 129 104q0 66 -33 88q-25 16 -96 16h-201z" />
<glyph unicode="&#x433;" horiz-adv-x="694" d="M664 731h-148q0 82 -6 98q-12 43 -76 43h-143v-532h115v-340h-359v340h92v532h-92v308h617v-449z" />
<glyph unicode="&#x434;" horiz-adv-x="940" d="M940 340v-524h-139q0 121 -17 147q-25 37 -135 37h-330q-113 0 -139 -37q-18 -27 -18 -147h-137v524h49q57 0 78 66q16 45 16 151q0 12 -2 37v39q0 184 55 231v8h-141v308h809v-308h-88v-532h139zM285 348v-8h364v532h-233q-35 0 -70 -55q-27 -41 -27 -149v-199 q1 -82 -34 -121z" />
<glyph unicode="&#x435;" horiz-adv-x="837" d="M606 479h150v-172q0 -168 -77 -242.5t-247 -74.5q-172 0 -253 73.5t-81 243.5v565q0 174 78 246t256 72q174 0 249 -73t75 -245v-301h-508v-143q0 -88 92 -88h178q63 0 80 43q8 20 8 96zM248 782v-118h358v118q0 90 -88 90h-178q-92 0 -92 -90z" />
<glyph unicode="&#x436;" horiz-adv-x="1394" d="M858 0h-319v340h88v227h-203q-61 0 -108.5 -32.5t-47.5 -92.5v-102h113v-340h-356v340h94v104q0 104 100 166q84 49 197 49h37v9l-295 204h-86v308h334v-308h-78v-8l286 -205h13v213h-88v308h319v-308h-88v-213h10l287 205v8h-76v308h332v-308h-86l-295 -204v-9h37 q115 0 197 -49q100 -59 100 -166v-104h96v-340h-358v340h112v102q0 59 -47 92t-108 33h-201v-227h88v-340z" />
<glyph unicode="&#x437;" d="M379 571v93h139q129 0 129 104q0 66 -35 86q-25 18 -94 18h-164q-61 0 -80 -43q-8 -23 -8 -96h-149v139q0 166 61 238q68 80 230 80h110q170 0 230 -76q51 -66 51 -242q0 -121 -6 -145q-16 -72 -95 -96v-8q94 -29 119 -111q10 -39 10 -172q0 -195 -71.5 -272.5 t-263.5 -77.5h-113q-174 0 -236 73q-55 66 -55 244v172h150q0 -76 8 -96q16 -43 80 -43h239q109 0 109 111q0 43 -29 81.5t-119 38.5h-147z" />
<glyph unicode="&#x438;" horiz-adv-x="987" d="M51 0v340h88v532h-88v308h340v-308h-100v-348l407 281v67h-94v308h334v-308h-88v-532h88v-340h-334v340h94v348l-407 -280v-68h100v-340h-340z" />
<glyph unicode="&#x439;" horiz-adv-x="987" d="M51 0v340h88v532h-88v308h340v-308h-100v-348l407 281v67h-94v308h334v-308h-88v-532h88v-340h-334v340h94v348l-407 -280v-68h100v-340h-340zM442 1456h103q121 0 121 92h90v-73q0 -121 -42 -162t-163 -41h-115q-119 0 -162 42t-43 161v73h91q-1 -92 120 -92z" />
<glyph unicode="&#x43a;" d="M51 0v340h88v532h-88v308h328v-308h-88v-213h10l287 205v8h-76v308h332v-308h-86l-295 -204v-9h37q115 0 196 -49q100 -59 101 -166v-104h94v-340h-356v340h112v102q0 59 -47 92t-108 33h-201v-227h88v-340h-328z" />
<glyph unicode="&#x43b;" horiz-adv-x="940" d="M889 340v-340h-332v340h92v532h-235q-45 0 -72 -53q-23 -43 -23 -151v-373q0 -176 -36.5 -235.5t-151.5 -59.5h-102v340q76 0 94 6q45 12 45 70v297q0 104 55 151v8h-143v308h809v-308h-88v-532h88z" />
<glyph unicode="&#x43c;" horiz-adv-x="1347" d="M774 0h-84l-297 803v-531h96v-272h-342v272h95v625h-95v272h246l336 -866l342 866h248v-272h-96v-625h96v-272h-344v272h96v531z" />
<glyph unicode="&#x43d;" horiz-adv-x="940" d="M557 1180h332v-308h-88v-532h88v-340h-332v340h92v231h-358v-231h100v-340h-340v340h88v532h-88v308h340v-308h-100v-208h358v208h-92v308z" />
<glyph unicode="&#x43e;" horiz-adv-x="884" d="M340 340h209q88 0 88 88v354q0 90 -88 90h-209q-92 0 -92 -90v-354q0 -88 92 -88zM786 872v-565q0 -317 -342 -317q-174 0 -256 71q-90 76 -90 246v565q0 174 84 246t262 72q176 0 256 -70q86 -76 86 -248z" />
<glyph unicode="&#x43f;" horiz-adv-x="940" d="M51 1180h838v-308h-88v-532h88v-340h-332v340h92v532h-358v-532h100v-340h-340v340h88v532h-88v308z" />
<glyph unicode="&#x440;" horiz-adv-x="911" d="M268 1180l19 -107h12q72 117 240 117t223 -74q49 -63 49 -235v-541q0 -340 -270 -340q-170 0 -242 111h-12v-211h114v-265h-350v265h88v972h-88v308h217zM401 340h164q94 0 94 92v348q0 92 -94 92h-164q-115 0 -114 -92v-348q-1 -92 114 -92z" />
<glyph unicode="&#x441;" horiz-adv-x="837" d="M606 479h150v-172q0 -168 -77 -242.5t-247 -74.5q-172 0 -253 73.5t-81 243.5v565q0 174 78 246t256 72q174 0 249 -73t75 -245v-139h-150q0 74 -8 96q-18 43 -80 43h-178q-92 0 -92 -90v-354q0 -88 92 -88h178q63 0 80 43q8 20 8 96z" />
<glyph unicode="&#x442;" horiz-adv-x="903" d="M33 1180h837v-449h-145q0 82 -6 98q-14 43 -78 43h-115v-532h121v-340h-391v340h119v532h-115q-63 0 -76 -43q-6 -16 -6 -98h-145v449z" />
<glyph unicode="&#x443;" horiz-adv-x="884" d="M162 -365v265q152 0 180 8q92 23 92 131l-317 770h-115v307h360v-307h-88l224 -535h10l143 535h-94v307h346v-307h-98l-248 -909q-39 -141 -92 -197q-66 -68 -201 -68h-102z" />
<glyph unicode="&#x444;" horiz-adv-x="1341" d="M508 -365v265h88v100q-242 0 -352 59q-156 80 -156 299v490q0 205 164 280q111 51 344 52v65h-88v260h237v-325q236 0 345 -52q164 -74 163 -280v-490q0 -219 -155 -299q-111 -59 -353 -59v-100h89v-265h-326zM938 872h-193v-532h193q82 0 115 14q53 23 53 90v316 q0 74 -51 98q-31 14 -117 14zM406 872q-84 0 -117 -16q-51 -23 -51 -96v-316q0 -68 55 -90q33 -14 113 -14h190v532h-190z" />
<glyph unicode="&#x445;" horiz-adv-x="995" d="M18 0v340h140l252 270l-242 262h-115v308h383v-308h-96l158 -176l157 176h-96v308h383v-308h-115l-241 -262l254 -270h137v-340h-418v340h105l-166 186l-166 -186h104v-340h-418z" />
<glyph unicode="&#x446;" horiz-adv-x="940" d="M51 0v340h96v532h-96v308h350v-308h-102v-532h342v532h-96v308h344v-308h-96v-532h147v-524h-139q0 117 -21 147q-29 37 -139 37h-590z" />
<glyph unicode="&#x447;" horiz-adv-x="940" d="M557 1180h340v-308h-96v-532h96v-340h-385v340h137v231h-203q-139 0 -194 27q-86 41 -86 162v112h-88v308h340v-308h-101v-112q0 -96 129 -96h203v208h-92v308z" />
<glyph unicode="&#x448;" horiz-adv-x="1355" d="M51 0v340h88v532h-88v308h328v-308h-88v-532h311v532h-88v308h328v-308h-88v-532h311v532h-88v308h328v-308h-88v-532h88v-340h-1254z" />
<glyph unicode="&#x449;" horiz-adv-x="1363" d="M51 0v340h88v532h-88v308h328v-308h-88v-532h311v532h-88v308h328v-308h-88v-532h311v532h-88v308h328v-308h-88v-532h147v-524h-139q0 115 -23 145q-29 39 -137 39h-1014z" />
<glyph unicode="&#x44a;" horiz-adv-x="997" d="M461 571v-231h188q141 0 142 111q0 121 -150 120h-180zM33 731v449h573v-308h-145v-208h188q152 0 222.5 -60.5t70.5 -152.5v-111q0 -184 -59 -258q-66 -82 -246 -82h-416v340h88v532h-49q-63 0 -76 -43q-6 -16 -6 -98h-145z" />
<glyph unicode="&#x44b;" horiz-adv-x="1222" d="M291 571v-231h188q141 0 142 111q0 121 -150 120h-180zM414 1180v-308h-123v-208h188q154 0 223.5 -59.5t69.5 -153.5v-111q0 -184 -59 -258q-68 -82 -248 -82h-414v340h88v532h-88v308h363zM1083 872v-532h88v-340h-327v340h88v532h-88v308h327v-308h-88z" />
<glyph unicode="&#x44c;" horiz-adv-x="827" d="M291 571v-231h188q141 0 142 111q0 121 -150 120h-180zM414 1180v-308h-123v-208h188q154 0 223.5 -59.5t69.5 -153.5v-111q0 -184 -59 -258q-68 -82 -248 -82h-414v340h88v532h-88v308h363z" />
<glyph unicode="&#x44d;" horiz-adv-x="837" d="M229 479q0 -76 9 -96q16 -43 79 -43h179q92 0 92 88v143h-250v93h250v118q0 90 -92 90h-179q-61 0 -79 -43q-8 -23 -9 -96h-149v139q0 172 76.5 245t249.5 73q176 0 253.5 -71.5t77.5 -246.5v-565q0 -170 -79.5 -243.5t-251.5 -73.5q-168 0 -247 74.5t-79 242.5v172h149z " />
<glyph unicode="&#x44e;" horiz-adv-x="1218" d="M983 782q0 90 -88 90h-178q-94 0 -94 -90v-354q0 -88 94 -88h178q88 0 88 88v354zM291 872v-208h182q0 240 2 270q14 129 78 186q78 70 254 70q174 0 248.5 -73t74.5 -245v-565q0 -168 -76.5 -242.5t-246.5 -74.5q-172 0 -253 73.5t-81 243.5v264h-182v-231h88v-340h-328 v340h88v532h-88v308h328v-308h-88z" />
<glyph unicode="&#x44f;" horiz-adv-x="899" d="M850 0h-377v340h129v231h-211q-100 0 -100 -120q0 -223 0 -203q-4 -147 -35 -197.5t-117 -50.5h-114v340q115 0 114 76v65q0 115 82 142v8q-47 12 -86 51q-45 43 -45 86v104q0 172 68.5 240t240.5 68h451v-308h-96v-532h96v-340zM602 664v208h-231q-68 0 -95 -18 q-35 -20 -34 -86q0 -104 129 -104h231z" />
<glyph unicode="&#x451;" horiz-adv-x="837" d="M606 479h150v-172q0 -168 -77 -242.5t-247 -74.5q-172 0 -253 73.5t-81 243.5v565q0 174 78 246t256 72q174 0 249 -73t75 -245v-301h-508v-143q0 -88 92 -88h178q63 0 80 43q8 20 8 96zM248 782v-118h358v118q0 90 -88 90h-178q-92 0 -92 -90zM274 1448q111 0 111 -82 q0 -39 -35 -63.5t-76 -24.5q-39 0 -75.5 24.5t-36.5 63.5q-1 82 112 82zM580 1448q113 0 112 -82q0 -39 -35.5 -63.5t-76.5 -24.5t-76 24.5t-35 63.5q0 82 111 82z" />
<glyph unicode="&#x2000;" horiz-adv-x="933" />
<glyph unicode="&#x2001;" horiz-adv-x="1866" />
<glyph unicode="&#x2002;" horiz-adv-x="933" />
<glyph unicode="&#x2003;" horiz-adv-x="1866" />
<glyph unicode="&#x2004;" horiz-adv-x="622" />
<glyph unicode="&#x2005;" horiz-adv-x="466" />
<glyph unicode="&#x2006;" horiz-adv-x="311" />
<glyph unicode="&#x2007;" horiz-adv-x="311" />
<glyph unicode="&#x2008;" horiz-adv-x="233" />
<glyph unicode="&#x2009;" horiz-adv-x="373" />
<glyph unicode="&#x200a;" horiz-adv-x="103" />
<glyph unicode="&#x2010;" horiz-adv-x="423" d="M2 631h424v-94h-424v94z" />
<glyph unicode="&#x2011;" horiz-adv-x="423" d="M2 631h424v-94h-424v94z" />
<glyph unicode="&#x2012;" horiz-adv-x="423" d="M2 631h424v-94h-424v94z" />
<glyph unicode="&#x2013;" horiz-adv-x="1048" d="M49 580l39 120h903l-39 -120h-903z" />
<glyph unicode="&#x2014;" horiz-adv-x="2097" d="M184 580l43 120h1686l-35 -120h-1694z" />
<glyph unicode="&#x2018;" horiz-adv-x="1765" d="M1092 1266l-267 -615h-436l377 615h326z" />
<glyph unicode="&#x2019;" horiz-adv-x="1765" d="M1147 1266l-381 -615h-324l269 615h436z" />
<glyph unicode="&#x201c;" horiz-adv-x="1765" d="M1552 1266l-258 -615h-424l367 615h315zM809 1266l-258 -615h-420l367 615h311z" />
<glyph unicode="&#x201d;" horiz-adv-x="1765" d="M1606 1266l-369 -615h-313l260 615h422zM864 1266l-366 -615h-314l258 615h422z" />
<glyph unicode="&#x201e;" horiz-adv-x="1765" d="M1606 383l-369 -614h-313l260 614h422zM864 383l-366 -614h-314l258 614h422z" />
<glyph unicode="&#x2020;" horiz-adv-x="1073" d="M332 -303v270h114v920h-167v-68h-183v254h183v-65h167v182h-114v268h411v-268h-110v-182h166v65h178v-254h-178v68h-166v-920h110v-270h-411z" />
<glyph unicode="&#x2022;" horiz-adv-x="1722" d="M1235 623q0 -131 -125 -215q-111 -72 -248 -72q-133 0 -248 76q-129 84 -129 211q0 131 125 215q113 74 250 73q139 0 250 -73q125 -82 125 -215z" />
<glyph unicode="&#x2026;" horiz-adv-x="2082" d="M33 0v315h358v-315h-358zM1585 0v315h357v-315h-357zM807 0v315h358v-315h-358z" />
<glyph unicode="&#x202f;" horiz-adv-x="373" />
<glyph unicode="&#x2030;" horiz-adv-x="2095" d="M1456 1651l139 -74l-1503 -1585l-129 80zM1458 696v-581q0 -76 -67 -119q-59 -39 -140 -39q-88 0 -145 43q-66 47 -66 131v565q0 80 66 125q55 39 139 39q82 0 144 -41q69 -45 69 -123zM1288 610h-78q-57 0 -57 -55v-299q0 -55 55 -55h80q57 0 58 55v299q-1 55 -58 55z M524 1546v-579q0 -76 -67 -119q-59 -39 -140 -39q-88 0 -145 41q-63 47 -63 131v565q0 80 63 125q55 39 139 39q82 0 144 -41q69 -45 69 -123zM356 1460h-80q-55 0 -55 -55v-297q0 -55 53 -55h82q53 0 54 55v297q-1 55 -54 55zM2034 696v-581q0 -76 -68 -119 q-59 -39 -139 -39q-90 0 -146 41q-66 47 -65 133v565q0 82 63 125q57 39 142 39q82 0 143 -41q70 -45 70 -123zM1864 610h-78q-57 0 -57 -55v-299q0 -55 55 -55h80q53 0 53 55v299q0 55 -53 55z" />
<glyph unicode="&#x2039;" horiz-adv-x="1722" d="M1243 813l-434 -309l426 -307l-141 -140l-621 447l619 446z" />
<glyph unicode="&#x203a;" horiz-adv-x="1722" d="M1243 502l-620 -445l-138 140l422 305l-428 309l144 139z" />
<glyph unicode="&#x205f;" horiz-adv-x="466" />
<glyph unicode="&#x2122;" horiz-adv-x="1802" d="M47 1040v408h565v-408h-120q0 111 -5 119q-12 29 -96 29v-465h101v-274h-322v274h102v465h-39q-63 0 -63 -51v-97h-123zM1251 723l195 725h260v-260h-88v-465h88v-274h-293v274h86v465h-8l-219 -739h-49l-222 739h-8v-465h88v-274h-295v274h91v465h-91v260h263l194 -725 h8z" />
<glyph unicode="&#x25fc;" horiz-adv-x="1177" d="M0 1178h1178v-1178h-1178v1178z" />
</font>
</defs>
</svg>
